STARTFONT 2.1
FONT -Adobe-Helvetica-Medium-O-Normal--24-240-75-75-P-130-iso10646-0400
SIZE 24 75 75
FONTBOUNDINGBOX 28 29 -1 -5
COMMENT $XConsortium: helvO24.bdf,v 1.13 95/01/26 18:02:44 gildea Exp $
COMMENT 
COMMENT +
COMMENT  Copyright 1984-1989, 1994 Adobe Systems Incorporated.
COMMENT  Copyright 1988, 1994 Digital Equipment Corporation.
COMMENT
COMMENT  Adobe is a trademark of Adobe Systems Incorporated which may be
COMMENT  registered in certain jurisdictions.
COMMENT  Permission to use these trademarks is hereby granted only in
COMMENT  association with the images described in this file.
COMMENT
COMMENT  Permission to use, copy, modify, distribute and sell this software
COMMENT  and its documentation for any purpose and without fee is hereby
COMMENT  granted, provided that the above copyright notices appear in all
COMMENT  copies and that both those copyright notices and this permission
COMMENT  notice appear in supporting documentation, and that the names of
COMMENT  Adobe Systems and Digital Equipment Corporation not be used in
COMMENT  advertising or publicity pertaining to distribution of the software
COMMENT  without specific, written prior permission.  Adobe Systems and
COMMENT  Digital Equipment Corporation make no representations about the
COMMENT  suitability of this software for any purpose.  It is provided "as
COMMENT  is" without express or implied warranty.
COMMENT -
STARTPROPERTIES 32
FOUNDRY "Adobe"
FAMILY_NAME "Helvetica"
WEIGHT_NAME "Medium"
SLANT "O"
SETWIDTH_NAME "Normal"
ADD_STYLE_NAME ""
PIXEL_SIZE 24
POINT_SIZE 240
RESOLUTION_X 75
RESOLUTION_Y 75
SPACING "P"
AVERAGE_WIDTH 130
CHARSET_REGISTRY "iso10646"
CHARSET_ENCODING "0400"
CAP_HEIGHT 19
X_HEIGHT 14
FONT_ASCENT 22
FONT_DESCENT 5
FACE_NAME "Helvetica Oblique"
COPYRIGHT "Copyright (c) 1984, 1987 Adobe Systems Incorporated. All Rights Reserved. Copyright (c) 1988, 1991 Digital Equipment Corporation. All Rights Reserved."

STARTCHAR space
ENCODING 32
SWIDTH 278 0
DWIDTH 6 0
BBX 0 0 0 0
BITMAP
ENDCHAR
STARTCHAR exclam
ENCODING 33
SWIDTH 278 0
DWIDTH 7 0
BBX 6 19 3 0
BITMAP
0C
0C
0C
0C
18
18
18
18
30
30
30
30
60
60
00
00
C0
C0
C0
ENDCHAR
STARTCHAR quotedbl
ENCODING 34
SWIDTH 355 0
DWIDTH 8 0
BBX 7 6 4 13
BITMAP
66
66
66
CC
CC
88
ENDCHAR
STARTCHAR numbersign
ENCODING 35
SWIDTH 556 0
DWIDTH 14 0
BBX 13 17 3 0
BITMAP
0330
0330
0660
0660
3FF8
3FF8
0CC0
0CC0
1980
1980
FFE0
FFE0
3300
3300
6600
6600
6600
ENDCHAR
STARTCHAR dollar
ENCODING 36
SWIDTH 556 0
DWIDTH 13 0
BBX 13 21 2 -2
BITMAP
00C0
00C0
07F0
1FF8
3998
3198
3300
3B00
1F00
0F80
07C0
06E0
0670
0630
0630
CC70
CCE0
FFC0
7F00
1800
1800
ENDCHAR
STARTCHAR percent
ENCODING 37
SWIDTH 889 0
DWIDTH 22 0
BBX 16 18 4 0
BITMAP
0001
1E03
3E06
630C
C318
C310
C630
7C60
78C0
0180
031E
063E
0C63
08C3
18C3
30C6
607C
4078
ENDCHAR
STARTCHAR ampersand
ENCODING 38
SWIDTH 667 0
DWIDTH 17 0
BBX 14 18 2 0
BITMAP
01E0
07F0
0630
0C30
0C30
0C60
0EE0
07C0
1F80
3F0C
739C
E1D8
C0F8
C070
C0F0
E1F8
7F9C
3E0C
ENDCHAR
STARTCHAR quotesingle
ENCODING 39
SWIDTH 191 0
DWIDTH 6 0
BBX 3 6 5 13
BITMAP
60
60
60
C0
C0
80
ENDCHAR
STARTCHAR parenleft
ENCODING 40
SWIDTH 333 0
DWIDTH 8 0
BBX 8 24 3 -5
BITMAP
03
06
0C
18
18
30
30
60
60
60
C0
C0
C0
C0
C0
C0
C0
C0
C0
60
60
60
30
18
ENDCHAR
STARTCHAR parenright
ENCODING 41
SWIDTH 333 0
DWIDTH 8 0
BBX 8 24 0 -5
BITMAP
18
0C
06
06
06
03
03
03
03
03
03
03
03
03
06
06
06
0C
0C
18
18
30
60
C0
ENDCHAR
STARTCHAR asterisk
ENCODING 42
SWIDTH 389 0
DWIDTH 10 0
BBX 7 6 5 12
BITMAP
10
D6
7C
70
D8
88
ENDCHAR
STARTCHAR plus
ENCODING 43
SWIDTH 584 0
DWIDTH 14 0
BBX 12 12 2 1
BITMAP
0300
0300
0300
0600
0600
FFF0
FFF0
0600
0600
0C00
0C00
0C00
ENDCHAR
STARTCHAR comma
ENCODING 44
SWIDTH 278 0
DWIDTH 6 0
BBX 3 6 1 -3
BITMAP
60
60
60
20
60
C0
ENDCHAR
STARTCHAR minus
ENCODING 45
SWIDTH 584 0
DWIDTH 15 0
BBX 11 2 3 6
BITMAP
FFE0
FFE0
ENDCHAR
STARTCHAR period
ENCODING 46
SWIDTH 278 0
DWIDTH 6 0
BBX 2 3 2 0
BITMAP
C0
C0
C0
ENDCHAR
STARTCHAR slash
ENCODING 47
SWIDTH 278 0
DWIDTH 7 0
BBX 11 19 0 0
BITMAP
0060
00C0
00C0
0180
0180
0300
0300
0600
0600
0C00
0C00
1800
1800
3000
3000
6000
6000
C000
C000
ENDCHAR
STARTCHAR zero
ENCODING 48
SWIDTH 556 0
DWIDTH 13 0
BBX 13 18 2 0
BITMAP
03E0
07F0
0E38
1818
1818
3018
3018
6030
6030
6030
6030
C060
C060
C0C0
C0C0
E380
7F00
3E00
ENDCHAR
STARTCHAR one
ENCODING 49
SWIDTH 556 0
DWIDTH 13 0
BBX 6 18 6 0
BITMAP
0C
0C
1C
F8
F8
18
18
30
30
30
30
60
60
60
60
C0
C0
C0
ENDCHAR
STARTCHAR two
ENCODING 50
SWIDTH 556 0
DWIDTH 13 0
BBX 14 18 1 0
BITMAP
03E0
07F8
0E1C
1C0C
180C
180C
001C
0038
0070
01E0
0380
0F00
1C00
3800
7000
E000
FFE0
FFE0
ENDCHAR
STARTCHAR three
ENCODING 51
SWIDTH 556 0
DWIDTH 13 0
BBX 12 18 2 0
BITMAP
03C0
0FE0
1C70
3830
3030
0070
00E0
01C0
0780
07C0
00E0
0060
0060
C060
C0E0
E3C0
7F80
3E00
ENDCHAR
STARTCHAR four
ENCODING 52
SWIDTH 556 0
DWIDTH 13 0
BBX 12 18 2 0
BITMAP
0030
0070
00F0
01B0
0360
0660
0C60
18C0
18C0
30C0
6180
C180
FFE0
FFE0
0180
0300
0300
0300
ENDCHAR
STARTCHAR five
ENCODING 53
SWIDTH 556 0
DWIDTH 13 0
BBX 13 18 2 0
BITMAP
0FF8
0FF8
0C00
0C00
1800
1800
1F80
3FC0
38E0
0060
0060
0060
0060
C0E0
C0C0
C3C0
FF80
3E00
ENDCHAR
STARTCHAR six
ENCODING 54
SWIDTH 556 0
DWIDTH 13 0
BBX 13 18 2 0
BITMAP
01E0
07F0
0E38
1818
3818
3000
6000
6F00
DFC0
F0E0
E060
C060
C060
C060
E0E0
71C0
7F80
1E00
ENDCHAR
STARTCHAR seven
ENCODING 55
SWIDTH 556 0
DWIDTH 13 0
BBX 13 18 3 0
BITMAP
3FF8
3FF8
0030
0060
00C0
01C0
0380
0300
0600
0E00
1C00
1800
3800
3000
6000
6000
C000
C000
ENDCHAR
STARTCHAR eight
ENCODING 56
SWIDTH 556 0
DWIDTH 13 0
BBX 12 18 2 0
BITMAP
03C0
07E0
0C70
1830
1830
1830
1C60
0FC0
1FC0
38E0
7060
6060
C060
C060
C0E0
E1C0
7F80
3E00
ENDCHAR
STARTCHAR nine
ENCODING 57
SWIDTH 556 0
DWIDTH 13 0
BBX 13 18 2 0
BITMAP
03E0
0FF0
0E38
3818
3018
7018
6038
6030
6070
71F0
3FB0
1E60
0060
00C0
C0C0
E380
7F00
3E00
ENDCHAR
STARTCHAR colon
ENCODING 58
SWIDTH 278 0
DWIDTH 6 0
BBX 5 14 3 0
BITMAP
18
18
18
00
00
00
00
00
00
00
00
C0
C0
C0
ENDCHAR
STARTCHAR semicolon
ENCODING 59
SWIDTH 278 0
DWIDTH 6 0
BBX 6 17 2 -3
BITMAP
0C
0C
0C
00
00
00
00
00
00
00
00
60
60
60
20
60
C0
ENDCHAR
STARTCHAR less
ENCODING 60
SWIDTH 584 0
DWIDTH 15 0
BBX 12 10 3 3
BITMAP
0070
01E0
0780
1E00
7800
E000
F000
3C00
0F00
0380
ENDCHAR
STARTCHAR equal
ENCODING 61
SWIDTH 584 0
DWIDTH 15 0
BBX 11 6 3 4
BITMAP
7FE0
7FE0
0000
0000
FFC0
FFC0
ENDCHAR
STARTCHAR greater
ENCODING 62
SWIDTH 584 0
DWIDTH 14 0
BBX 11 10 3 3
BITMAP
7000
3C00
0F00
03C0
00E0
01E0
0780
1E00
7800
E000
ENDCHAR
STARTCHAR question
ENCODING 63
SWIDTH 556 0
DWIDTH 13 0
BBX 11 19 4 0
BITMAP
0F80
3FC0
70E0
6060
C060
C0E0
01C0
0780
0E00
1C00
1800
3000
3000
3000
0000
0000
6000
6000
6000
ENDCHAR
STARTCHAR at
ENCODING 64
SWIDTH 1015 0
DWIDTH 22 0
BBX 21 23 2 -4
BITMAP
003F00
00FFC0
03C1E0
070070
0C0038
180018
303818
30FD98
61C798
638318
630618
C60630
C60C30
C60C60
C618E0
C718C0
C3FF80
C1EF00
600000
700000
381800
1FF800
07E000
ENDCHAR
STARTCHAR A
ENCODING 65
SWIDTH 667 0
DWIDTH 17 0
BBX 15 19 1 0
BITMAP
0070
0070
00F0
00F8
01D8
0198
0398
0718
0618
0E0C
0C0C
1FFC
1FFC
380C
3006
7006
6006
E006
E006
ENDCHAR
STARTCHAR B
ENCODING 66
SWIDTH 667 0
DWIDTH 17 0
BBX 16 19 2 0
BITMAP
0FFC
0FFE
0C07
0C03
1803
1803
1807
180E
3FF8
3FFC
300E
3006
6006
6006
6006
600E
C03C
FFF8
FFE0
ENDCHAR
STARTCHAR C
ENCODING 67
SWIDTH 722 0
DWIDTH 18 0
BBX 17 19 2 0
BITMAP
00FE00
03FF00
078380
0E0180
180180
380000
300000
600000
600000
600000
C00000
C00000
C00000
C00600
E00E00
601C00
787800
3FF000
0FC000
ENDCHAR
STARTCHAR D
ENCODING 68
SWIDTH 722 0
DWIDTH 18 0
BBX 18 19 2 0
BITMAP
0FFC00
0FFF00
0C0780
0C0180
1801C0
1800C0
1800C0
1800C0
3000C0
300180
300180
300180
600300
600700
600E00
601C00
C07800
FFF000
FFC000
ENDCHAR
STARTCHAR E
ENCODING 69
SWIDTH 667 0
DWIDTH 16 0
BBX 16 19 2 0
BITMAP
0FFF
0FFF
0C00
0C00
1800
1800
1800
1800
3FF8
3FF8
3000
3000
6000
6000
6000
6000
C000
FFF0
FFF0
ENDCHAR
STARTCHAR F
ENCODING 70
SWIDTH 611 0
DWIDTH 14 0
BBX 15 19 2 0
BITMAP
0FFE
0FFE
0C00
0C00
1800
1800
1800
1800
3000
3FF0
3FF0
3000
6000
6000
6000
6000
C000
C000
C000
ENDCHAR
STARTCHAR G
ENCODING 71
SWIDTH 778 0
DWIDTH 19 0
BBX 17 19 2 0
BITMAP
00FE00
03FF00
078380
0E0180
180180
380000
300000
600000
600000
603F80
C03F80
C00380
C00300
C00700
E00E00
601E00
787600
3FEC00
0FCC00
ENDCHAR
STARTCHAR H
ENCODING 72
SWIDTH 722 0
DWIDTH 18 0
BBX 18 19 2 0
BITMAP
0C00C0
0C00C0
0C00C0
0C00C0
180180
180180
180180
180180
3FFF00
3FFF00
300300
300300
600600
600600
600600
600600
C00C00
C00C00
C00C00
ENDCHAR
STARTCHAR I
ENCODING 73
SWIDTH 278 0
DWIDTH 8 0
BBX 6 19 3 0
BITMAP
0C
0C
0C
0C
18
18
18
18
30
30
30
30
60
60
60
60
C0
C0
C0
ENDCHAR
STARTCHAR J
ENCODING 74
SWIDTH 500 0
DWIDTH 13 0
BBX 13 19 2 0
BITMAP
0018
0018
0018
0018
0030
0030
0030
0030
0060
0060
0060
0060
C0C0
C0C0
C1C0
C180
E380
7F00
3E00
ENDCHAR
STARTCHAR K
ENCODING 75
SWIDTH 667 0
DWIDTH 18 0
BBX 17 19 2 0
BITMAP
0C0380
0C0700
0C0E00
0C1C00
187000
18E000
19C000
1B8000
3F0000
3F8000
39C000
30C000
60E000
607000
603800
601800
C01C00
C00E00
C00600
ENDCHAR
STARTCHAR L
ENCODING 76
SWIDTH 556 0
DWIDTH 14 0
BBX 11 19 2 0
BITMAP
0C00
0C00
0C00
0C00
1800
1800
1800
1800
3000
3000
3000
3000
6000
6000
6000
6000
C000
FFE0
FFE0
ENDCHAR
STARTCHAR M
ENCODING 77
SWIDTH 833 0
DWIDTH 22 0
BBX 22 19 2 0
BITMAP
0C000C
0C001C
0E003C
1E0038
1E0078
1E00D8
1B0198
1B01B0
330330
330730
330630
330C30
619C60
619860
61B860
61B060
C1E0C0
C0E0C0
C0C0C0
ENDCHAR
STARTCHAR N
ENCODING 78
SWIDTH 722 0
DWIDTH 18 0
BBX 18 19 2 0
BITMAP
0E00C0
0E00C0
0E00C0
0F00C0
1B0180
1B0180
198180
198180
318300
30C300
30C300
30C300
606600
606600
603600
603600
C01C00
C01C00
C01C00
ENDCHAR
STARTCHAR O
ENCODING 79
SWIDTH 778 0
DWIDTH 18 0
BBX 18 19 2 0
BITMAP
00FC00
03FF00
078780
0E0180
1801C0
3800C0
3000C0
6000C0
6000C0
600180
C00180
C00380
C00300
C00600
E00E00
601C00
787800
3FF000
0FC000
ENDCHAR
STARTCHAR P
ENCODING 80
SWIDTH 667 0
DWIDTH 16 0
BBX 16 19 2 0
BITMAP
0FFC
0FFE
0C07
0C03
1803
1803
1803
1806
3FFC
3FF8
3000
3000
6000
6000
6000
6000
C000
C000
C000
ENDCHAR
STARTCHAR Q
ENCODING 81
SWIDTH 778 0
DWIDTH 18 0
BBX 18 19 2 0
BITMAP
00FC00
03FF00
078780
0E0180
1801C0
3800C0
3000C0
6000C0
6000C0
600180
C00180
C00380
C00300
C1C600
E0EE00
607C00
787800
3FFC00
0FCE00
ENDCHAR
STARTCHAR R
ENCODING 82
SWIDTH 722 0
DWIDTH 17 0
BBX 16 19 2 0
BITMAP
0FF8
0FFE
0C07
0C03
1803
1803
1806
180C
3FFC
3FF8
301C
300C
600C
600C
600C
600C
C018
C018
C018
ENDCHAR
STARTCHAR S
ENCODING 83
SWIDTH 667 0
DWIDTH 16 0
BBX 16 19 1 0
BITMAP
00F8
03FE
0707
0C03
1803
1800
1C00
0F00
07E0
00F8
001C
000E
0006
C006
C006
E00C
783C
3FF0
0FC0
ENDCHAR
STARTCHAR T
ENCODING 84
SWIDTH 611 0
DWIDTH 16 0
BBX 14 19 5 0
BITMAP
FFFC
FFFC
0300
0300
0600
0600
0600
0600
0C00
0C00
0C00
0C00
1800
1800
1800
1800
3000
3000
3000
ENDCHAR
STARTCHAR U
ENCODING 85
SWIDTH 722 0
DWIDTH 18 0
BBX 17 19 3 0
BITMAP
180180
180180
180180
180180
300300
300300
300300
300300
600600
600600
600600
600C00
C00C00
C01C00
C01800
E03800
607000
7FE000
1F8000
ENDCHAR
STARTCHAR V
ENCODING 86
SWIDTH 667 0
DWIDTH 17 0
BBX 15 19 5 0
BITMAP
C006
C006
C00C
C00C
C018
C038
6030
6070
6060
60C0
61C0
6180
6380
6300
6700
3600
3C00
3C00
3800
ENDCHAR
STARTCHAR W
ENCODING 87
SWIDTH 944 0
DWIDTH 22 0
BBX 20 19 5 0
BITMAP
C06030
C06030
C0E060
C0E060
C1E0C0
C1E0C0
C36180
C36180
C76380
C66300
CE6700
CC6600
DC6E00
D86C00
783C00
703800
703800
603000
603000
ENDCHAR
STARTCHAR X
ENCODING 88
SWIDTH 667 0
DWIDTH 17 0
BBX 19 19 0 0
BITMAP
0C0060
0E00E0
0601C0
070380
030700
018E00
01DC00
00F800
00F000
00E000
01F000
03B000
073800
0E1800
1C1C00
380C00
700E00
E00600
C00600
ENDCHAR
STARTCHAR Y
ENCODING 89
SWIDTH 667 0
DWIDTH 16 0
BBX 15 19 5 0
BITMAP
C00E
C01C
C038
6070
60E0
61C0
3180
3300
3700
3E00
1C00
1800
1800
1800
3000
3000
3000
3000
3000
ENDCHAR
STARTCHAR Z
ENCODING 90
SWIDTH 611 0
DWIDTH 15 0
BBX 17 19 1 0
BITMAP
0FFF80
0FFF80
000380
000700
000E00
001C00
003800
007000
00E000
01C000
038000
070000
0E0000
1C0000
380000
700000
E00000
FFF800
FFF800
ENDCHAR
STARTCHAR bracketleft
ENCODING 91
SWIDTH 278 0
DWIDTH 7 0
BBX 9 24 1 -5
BITMAP
0780
0780
0600
0600
0C00
0C00
0C00
0C00
1800
1800
1800
1800
3000
3000
3000
3000
6000
6000
6000
6000
C000
C000
F000
F000
ENDCHAR
STARTCHAR backslash
ENCODING 92
SWIDTH 278 0
DWIDTH 7 0
BBX 3 19 4 0
BITMAP
C0
C0
C0
C0
C0
C0
C0
C0
C0
C0
E0
60
60
60
60
60
60
60
60
ENDCHAR
STARTCHAR bracketright
ENCODING 93
SWIDTH 278 0
DWIDTH 7 0
BBX 9 24 0 -5
BITMAP
0780
0780
0180
0180
0300
0300
0300
0300
0600
0600
0600
0600
0C00
0C00
0C00
0C00
1800
1800
1800
1800
3000
3000
F000
F000
ENDCHAR
STARTCHAR asciicircum
ENCODING 94
SWIDTH 469 0
DWIDTH 12 0
BBX 11 7 3 12
BITMAP
0300
0700
0D80
1980
30C0
60C0
C060
ENDCHAR
STARTCHAR underscore
ENCODING 95
SWIDTH 556 0
DWIDTH 14 0
BBX 14 2 -1 -5
BITMAP
FFFC
FFFC
ENDCHAR
STARTCHAR grave
ENCODING 96
SWIDTH 333 0
DWIDTH 7 0
BBX 5 4 5 15
BITMAP
C0
60
30
18
ENDCHAR
STARTCHAR a
ENCODING 97
SWIDTH 556 0
DWIDTH 13 0
BBX 11 14 2 0
BITMAP
07C0
1FE0
3860
3060
00E0
07C0
1FC0
78C0
6180
C180
C380
C780
FDC0
78C0
ENDCHAR
STARTCHAR b
ENCODING 98
SWIDTH 556 0
DWIDTH 14 0
BBX 13 19 2 0
BITMAP
0C00
0C00
0C00
1800
1800
19E0
1FF0
1E38
3818
3018
3018
3018
6030
6030
6060
60E0
F1C0
FF80
CF00
ENDCHAR
STARTCHAR c
ENCODING 99
SWIDTH 500 0
DWIDTH 12 0
BBX 11 14 2 0
BITMAP
07C0
0FE0
1C60
3060
6000
6000
C000
C000
C000
C000
C180
E380
7F00
3E00
ENDCHAR
STARTCHAR d
ENCODING 100
SWIDTH 556 0
DWIDTH 14 0
BBX 14 19 2 0
BITMAP
000C
000C
000C
0018
0018
0798
0FF8
1C70
3030
7030
6030
6030
C060
C060
C060
C0E0
E3C0
7FC0
3CC0
ENDCHAR
STARTCHAR e
ENCODING 101
SWIDTH 556 0
DWIDTH 13 0
BBX 12 14 2 0
BITMAP
03C0
0FE0
1C70
3830
7030
6030
FFE0
FFE0
C000
C000
C0C0
E1C0
7F80
3E00
ENDCHAR
STARTCHAR f
ENCODING 102
SWIDTH 278 0
DWIDTH 8 0
BBX 8 19 3 0
BITMAP
07
0F
0C
18
18
7E
7E
18
30
30
30
30
60
60
60
60
C0
C0
C0
ENDCHAR
STARTCHAR g
ENCODING 103
SWIDTH 556 0
DWIDTH 14 0
BBX 15 19 0 -5
BITMAP
00F6
03FE
071E
0C0C
180C
180C
181C
3018
3018
3038
3038
38F0
1FF0
07B0
0030
C060
E0E0
7FC0
1F00
ENDCHAR
STARTCHAR h
ENCODING 104
SWIDTH 556 0
DWIDTH 13 0
BBX 12 19 2 0
BITMAP
0C00
0C00
0C00
0C00
1800
19C0
1FF0
1E30
3830
3030
3030
3030
6060
6060
6060
6060
C0C0
C0C0
C0C0
ENDCHAR
STARTCHAR i
ENCODING 105
SWIDTH 222 0
DWIDTH 6 0
BBX 6 19 2 0
BITMAP
0C
0C
0C
00
00
18
18
18
30
30
30
30
60
60
60
60
C0
C0
C0
ENDCHAR
STARTCHAR j
ENCODING 106
SWIDTH 222 0
DWIDTH 6 0
BBX 9 24 -1 -5
BITMAP
0180
0180
0180
0000
0000
0300
0300
0300
0600
0600
0600
0600
0C00
0C00
0C00
0C00
1800
1800
1800
1800
3000
3000
F000
E000
ENDCHAR
STARTCHAR k
ENCODING 107
SWIDTH 500 0
DWIDTH 12 0
BBX 12 19 2 0
BITMAP
0C00
0C00
0C00
0C00
1800
1830
1860
18C0
3380
3700
3E00
3E00
6700
6300
6380
6180
C1C0
C0C0
C0C0
ENDCHAR
STARTCHAR l
ENCODING 108
SWIDTH 222 0
DWIDTH 6 0
BBX 6 19 2 0
BITMAP
0C
0C
0C
0C
18
18
18
18
30
30
30
30
60
60
60
60
C0
C0
C0
ENDCHAR
STARTCHAR m
ENCODING 109
SWIDTH 833 0
DWIDTH 20 0
BBX 18 14 2 0
BITMAP
19C780
1FEFC0
1C78C0
3060C0
3060C0
3060C0
3060C0
60C180
60C180
60C180
60C180
C18300
C18300
C18300
ENDCHAR
STARTCHAR n
ENCODING 110
SWIDTH 556 0
DWIDTH 14 0
BBX 12 14 2 0
BITMAP
19C0
1FF0
1E30
3830
3030
3030
3030
6060
6060
6060
6060
C0C0
C0C0
C0C0
ENDCHAR
STARTCHAR o
ENCODING 111
SWIDTH 556 0
DWIDTH 13 0
BBX 12 14 2 0
BITMAP
07C0
0FE0
1C70
3030
6030
6030
C030
C030
C060
C060
C0C0
E380
7F00
3E00
ENDCHAR
STARTCHAR p
ENCODING 112
SWIDTH 556 0
DWIDTH 14 0
BBX 14 19 1 -5
BITMAP
0CF0
0FF8
0F1C
1C0C
180C
180C
1818
3018
3018
3030
3070
78E0
7FC0
6780
6000
C000
C000
C000
C000
ENDCHAR
STARTCHAR q
ENCODING 113
SWIDTH 556 0
DWIDTH 14 0
BBX 13 19 2 -5
BITMAP
0798
0FF8
1C70
3030
7030
6030
6030
C060
C060
C060
C0E0
E3C0
7FC0
3CC0
00C0
0180
0180
0180
0180
ENDCHAR
STARTCHAR r
ENCODING 114
SWIDTH 333 0
DWIDTH 9 0
BBX 9 14 2 0
BITMAP
1980
1B80
1E00
3C00
3800
3000
3000
6000
6000
6000
6000
C000
C000
C000
ENDCHAR
STARTCHAR s
ENCODING 115
SWIDTH 500 0
DWIDTH 12 0
BBX 11 14 2 0
BITMAP
1FC0
3FE0
7060
6060
6000
7800
3F00
0780
01C0
00C0
C0C0
C1C0
FF80
7F00
ENDCHAR
STARTCHAR t
ENCODING 116
SWIDTH 278 0
DWIDTH 8 0
BBX 7 18 3 0
BITMAP
0C
0C
0C
18
7E
7E
18
18
30
30
30
60
60
60
C0
C0
F0
70
ENDCHAR
STARTCHAR u
ENCODING 117
SWIDTH 556 0
DWIDTH 14 0
BBX 12 14 3 0
BITMAP
3030
3030
3030
6060
6060
6060
6060
C0C0
C0C0
C0C0
C1C0
C780
FD80
7980
ENDCHAR
STARTCHAR v
ENCODING 118
SWIDTH 500 0
DWIDTH 13 0
BBX 11 14 4 0
BITMAP
C060
C060
C0C0
C0C0
C180
C180
C300
C300
6600
6600
6C00
7800
3800
3000
ENDCHAR
STARTCHAR w
ENCODING 119
SWIDTH 722 0
DWIDTH 18 0
BBX 17 14 3 0
BITMAP
C0C180
C1C180
C3C300
C3C300
C6C600
C6C600
CCCC00
CCCC00
D8D800
78D800
707800
707000
606000
606000
ENDCHAR
STARTCHAR x
ENCODING 120
SWIDTH 500 0
DWIDTH 12 0
BBX 14 14 1 0
BITMAP
180C
181C
0C38
0C70
06E0
07C0
0380
0700
0F80
1D80
38C0
70C0
E060
C060
ENDCHAR
STARTCHAR y
ENCODING 121
SWIDTH 500 0
DWIDTH 13 0
BBX 14 19 1 -5
BITMAP
300C
300C
301C
3818
1830
1870
1860
0CE0
0CC0
0D80
0780
0700
0700
0600
0C00
1C00
3800
F000
E000
ENDCHAR
STARTCHAR z
ENCODING 122
SWIDTH 500 0
DWIDTH 12 0
BBX 13 14 1 0
BITMAP
1FF8
1FF8
0030
0060
00C0
0180
0300
0600
0C00
1800
3000
6000
FFC0
FFC0
ENDCHAR
STARTCHAR braceleft
ENCODING 123
SWIDTH 334 0
DWIDTH 9 0
BBX 10 24 2 -5
BITMAP
01C0
0300
0600
0C00
0C00
0C00
1800
1800
1800
1800
3000
6000
C000
6000
3000
3000
6000
6000
6000
C000
C000
C000
6000
3000
ENDCHAR
STARTCHAR bar
ENCODING 124
SWIDTH 260 0
DWIDTH 6 0
BBX 7 24 1 -5
BITMAP
06
06
06
06
0C
0C
0C
0C
18
18
18
18
30
30
30
30
60
60
60
60
C0
C0
C0
C0
ENDCHAR
STARTCHAR braceright
ENCODING 125
SWIDTH 334 0
DWIDTH 9 0
BBX 10 24 -1 -5
BITMAP
0600
0300
0180
0180
0180
0180
0300
0300
0300
0300
0300
0180
00C0
0180
0300
0600
0600
0C00
0C00
0C00
1800
1800
3000
E000
ENDCHAR
STARTCHAR asciitilde
ENCODING 126
SWIDTH 584 0
DWIDTH 14 0
BBX 11 4 3 5
BITMAP
3860
7E60
CFC0
C380
ENDCHAR
STARTCHAR space
ENCODING 160
SWIDTH 278 0
DWIDTH 6 0
BBX 0 0 0 0
BITMAP
ENDCHAR
STARTCHAR exclamdown
ENCODING 161
SWIDTH 333 0
DWIDTH 8 0
BBX 6 19 2 -5
BITMAP
0C
0C
0C
00
00
18
18
30
30
30
30
60
60
60
60
C0
C0
C0
C0
ENDCHAR
STARTCHAR cent
ENCODING 162
SWIDTH 556 0
DWIDTH 13 0
BBX 11 18 2 -2
BITMAP
0060
0060
07C0
1FC0
39E0
6360
6300
C600
C600
CC00
CC00
D800
D980
F380
7F00
7E00
C000
C000
ENDCHAR
STARTCHAR sterling
ENCODING 163
SWIDTH 556 0
DWIDTH 14 0
BBX 14 18 1 0
BITMAP
01F8
07FC
060C
0C0C
0C00
0E00
0600
0600
3FE0
3FE0
0600
0E00
0C00
1C00
3800
77B0
FFF0
F8E0
ENDCHAR
STARTCHAR currency
ENCODING 164
SWIDTH 556 0
DWIDTH 13 0
BBX 13 12 2 3
BITMAP
3018
3BB8
1FF0
0C60
1860
1860
30C0
30C0
3180
7FC0
EEE0
C060
ENDCHAR
STARTCHAR yen
ENCODING 165
SWIDTH 556 0
DWIDTH 14 0
BBX 14 18 3 0
BITMAP
600C
601C
3038
3030
1860
18E0
18C0
0D80
7FE0
7FE0
0600
FFC0
FFC0
0C00
0C00
1800
1800
1800
ENDCHAR
STARTCHAR brokenbar
ENCODING 166
SWIDTH 260 0
DWIDTH 6 0
BBX 6 23 2 -4
BITMAP
0C
0C
0C
0C
0C
18
18
18
18
18
00
00
00
60
60
60
60
60
C0
C0
C0
C0
C0
ENDCHAR
STARTCHAR section
ENCODING 167
SWIDTH 556 0
DWIDTH 13 0
BBX 12 24 2 -5
BITMAP
03E0
07F0
0E30
0C30
0C00
0C00
0600
1F00
3F80
71C0
60C0
6060
6060
7060
38E0
1FC0
0F80
0600
0300
0300
C300
C700
FE00
7C00
ENDCHAR
STARTCHAR dieresis
ENCODING 168
SWIDTH 333 0
DWIDTH 8 0
BBX 6 2 5 16
BITMAP
CC
CC
ENDCHAR
STARTCHAR copyright
ENCODING 169
SWIDTH 737 0
DWIDTH 19 0
BBX 18 17 3 0
BITMAP
00F800
070E00
0C0300
380180
21F880
630CC0
460440
CC0040
8C0040
8C00C0
8C1880
C67180
43C100
600300
300C00
1C3800
07C000
ENDCHAR
STARTCHAR ordfeminine
ENCODING 170
SWIDTH 370 0
DWIDTH 9 0
BBX 8 12 4 7
BITMAP
3E
63
43
1F
73
C2
C6
FE
76
00
FE
FE
ENDCHAR
STARTCHAR guillemotleft
ENCODING 171
SWIDTH 556 0
DWIDTH 14 0
BBX 10 8 3 3
BITMAP
0CC0
1980
3300
6600
CC00
6600
3300
1980
ENDCHAR
STARTCHAR logicalnot
ENCODING 172
SWIDTH 584 0
DWIDTH 15 0
BBX 12 7 3 3
BITMAP
FFF0
FFF0
0030
0030
0060
0060
0060
ENDCHAR
STARTCHAR hyphen
ENCODING 173
SWIDTH 333 0
DWIDTH 8 0
BBX 7 2 2 6
BITMAP
FE
FE
ENDCHAR
STARTCHAR registered
ENCODING 174
SWIDTH 737 0
DWIDTH 19 0
BBX 18 17 3 0
BITMAP
00F800
070E00
0C0300
380180
21F880
630CC0
C20C40
861840
87F040
84C040
8C60C0
C83080
581980
600300
300C00
1C3800
07E000
ENDCHAR
STARTCHAR macron
ENCODING 175
SWIDTH 333 0
DWIDTH 8 0
BBX 6 2 5 16
BITMAP
FC
FC
ENDCHAR
STARTCHAR degree
ENCODING 176
SWIDTH 400 0
DWIDTH 9 0
BBX 8 7 3 11
BITMAP
3C
66
C3
C3
C3
66
3C
ENDCHAR
STARTCHAR plusminus
ENCODING 177
SWIDTH 584 0
DWIDTH 14 0
BBX 13 13 1 0
BITMAP
0180
0180
0180
0300
7FF8
7FF8
0300
0600
0600
0600
0000
FFF0
FFF0
ENDCHAR
STARTCHAR twosuperior
ENCODING 178
SWIDTH 333 0
DWIDTH 7 0
BBX 7 10 2 8
BITMAP
3C
7E
66
06
0C
38
60
C0
FC
FC
ENDCHAR
STARTCHAR threesuperior
ENCODING 179
SWIDTH 333 0
DWIDTH 7 0
BBX 8 10 2 8
BITMAP
1E
3F
23
06
1C
1E
06
C6
FC
78
ENDCHAR
STARTCHAR acute
ENCODING 180
SWIDTH 333 0
DWIDTH 7 0
BBX 5 4 5 15
BITMAP
18
30
60
C0
ENDCHAR
STARTCHAR mu
ENCODING 181
SWIDTH 556 0
DWIDTH 14 0
BBX 14 19 1 -5
BITMAP
0C0C
0C0C
0C0C
1818
1818
1818
1818
3030
3030
3030
3070
71E0
7F60
6E60
6000
C000
C000
C000
C000
ENDCHAR
STARTCHAR paragraph
ENCODING 182
SWIDTH 537 0
DWIDTH 12 0
BBX 12 24 3 -5
BITMAP
03F0
0FF0
1F60
3E60
7E40
FEC0
FCC0
FCC0
FC80
FD80
7980
1980
1900
1B00
1B00
1300
3200
3600
3600
2600
6C00
6C00
6C00
6C00
ENDCHAR
STARTCHAR periodcentered
ENCODING 183
SWIDTH 278 0
DWIDTH 6 0
BBX 2 3 4 6
BITMAP
C0
C0
C0
ENDCHAR
STARTCHAR cedilla
ENCODING 184
SWIDTH 333 0
DWIDTH 7 0
BBX 5 6 1 -5
BITMAP
30
30
18
18
F8
70
ENDCHAR
STARTCHAR onesuperior
ENCODING 185
SWIDTH 333 0
DWIDTH 7 0
BBX 4 10 4 8
BITMAP
30
30
F0
E0
60
60
60
C0
C0
C0
ENDCHAR
STARTCHAR ordmasculine
ENCODING 186
SWIDTH 365 0
DWIDTH 9 0
BBX 9 12 3 7
BITMAP
0F00
1F80
3180
2180
6180
6100
6300
7E00
3C00
0000
FE00
FE00
ENDCHAR
STARTCHAR guillemotright
ENCODING 187
SWIDTH 556 0
DWIDTH 14 0
BBX 10 8 4 3
BITMAP
6600
3300
1980
0CC0
1980
3300
6600
CC00
ENDCHAR
STARTCHAR onequarter
ENCODING 188
SWIDTH 834 0
DWIDTH 19 0
BBX 14 19 4 0
BITMAP
000C
180C
1818
7830
7060
3060
30C0
3180
6180
630C
661C
063C
0C6C
18D8
3198
33FC
63FC
C030
C030
ENDCHAR
STARTCHAR onehalf
ENCODING 189
SWIDTH 834 0
DWIDTH 19 0
BBX 15 19 4 0
BITMAP
000C
180C
1818
7830
7060
3060
30C0
3180
6180
633C
667E
0666
0C06
180C
3038
3060
60C0
C0FC
C0FC
ENDCHAR
STARTCHAR threequarters
ENCODING 190
SWIDTH 834 0
DWIDTH 19 0
BBX 16 19 2 0
BITMAP
0003
1E03
3F06
230C
0618
1C18
1E30
0660
C660
FCC3
7987
018F
031B
0636
0C66
0CFF
18FF
300C
300C
ENDCHAR
STARTCHAR questiondown
ENCODING 191
SWIDTH 611 0
DWIDTH 13 0
BBX 11 19 1 -5
BITMAP
00C0
00C0
00C0
0000
0000
0180
0180
0180
0300
0700
0E00
3C00
7000
E060
C060
C0C0
E1C0
7F80
3E00
ENDCHAR
STARTCHAR Agrave
ENCODING 192
SWIDTH 667 0
DWIDTH 17 0
BBX 15 24 1 0
BITMAP
0180
00C0
0060
0030
0000
0070
0070
00F0
00F8
01D8
0198
0398
0718
0618
0E0C
0C0C
1FFC
1FFC
380C
3006
7006
6006
E006
E006
ENDCHAR
STARTCHAR Aacute
ENCODING 193
SWIDTH 667 0
DWIDTH 17 0
BBX 15 24 1 0
BITMAP
000C
0018
0030
0060
0000
0070
0070
00F0
00F8
01D8
0198
0398
0718
0618
0E0C
0C0C
1FFC
1FFC
380C
3006
7006
6006
E006
E006
ENDCHAR
STARTCHAR Acircumflex
ENCODING 194
SWIDTH 667 0
DWIDTH 17 0
BBX 15 24 1 0
BITMAP
0030
0078
00CC
0186
0000
0070
0070
00F0
00F8
01D8
0198
0398
0718
0618
0E0C
0C0C
1FFC
1FFC
380C
3006
7006
6006
E006
E006
ENDCHAR
STARTCHAR Atilde
ENCODING 195
SWIDTH 667 0
DWIDTH 17 0
BBX 15 23 1 0
BITMAP
00E2
01B6
011C
0000
0070
0070
00F0
00F8
01D8
0198
0398
0718
0618
0E0C
0C0C
1FFC
1FFC
380C
3006
7006
6006
E006
E006
ENDCHAR
STARTCHAR Adieresis
ENCODING 196
SWIDTH 667 0
DWIDTH 17 0
BBX 15 23 1 0
BITMAP
018C
018C
0000
0000
0070
0070
00F0
00F8
01D8
0198
0398
0718
0618
0E0C
0C0C
1FFC
1FFC
380C
3006
7006
6006
E006
E006
ENDCHAR
STARTCHAR Aring
ENCODING 197
SWIDTH 667 0
DWIDTH 17 0
BBX 15 24 1 0
BITMAP
0038
006C
006C
0038
0000
0070
0070
00F0
00F8
01D8
0198
0398
0718
0618
0E0C
0C0C
1FFC
1FFC
380C
3006
7006
6006
E006
E006
ENDCHAR
STARTCHAR AE
ENCODING 198
SWIDTH 1000 0
DWIDTH 23 0
BBX 25 19 1 0
BITMAP
003FFF80
007FFF80
00660000
00C60000
018C0000
018C0000
030C0000
030C0000
061FFE00
061FFE00
0C180000
1FF80000
1FF00000
30300000
30300000
60300000
60600000
C07FF800
C07FF800
ENDCHAR
STARTCHAR Ccedilla
ENCODING 199
SWIDTH 722 0
DWIDTH 18 0
BBX 17 24 2 -5
BITMAP
00FC00
03FF00
078780
0E0180
180180
380000
300000
600000
600000
600000
C00000
C00000
C00000
C00600
E00E00
601C00
787800
3FF000
0FC000
0C0000
060000
060000
3E0000
1C0000
ENDCHAR
STARTCHAR Egrave
ENCODING 200
SWIDTH 667 0
DWIDTH 16 0
BBX 16 24 2 0
BITMAP
0300
0180
00C0
0060
0000
0FFF
0FFF
0C00
0C00
1800
1800
1800
1800
3FF8
3FF8
3000
3000
6000
6000
6000
6000
C000
FFF0
FFF0
ENDCHAR
STARTCHAR Eacute
ENCODING 201
SWIDTH 667 0
DWIDTH 16 0
BBX 16 24 2 0
BITMAP
000C
0018
0030
0060
0000
0FFF
0FFF
0C00
0C00
1800
1800
1800
1800
3FF8
3FF8
3000
3000
6000
6000
6000
6000
C000
FFF0
FFF0
ENDCHAR
STARTCHAR Ecircumflex
ENCODING 202
SWIDTH 667 0
DWIDTH 16 0
BBX 16 24 2 0
BITMAP
0060
00F0
0198
030C
0000
0FFF
0FFF
0C00
0C00
1800
1800
1800
1800
3FF8
3FF8
3000
3000
6000
6000
6000
6000
C000
FFF0
FFF0
ENDCHAR
STARTCHAR Edieresis
ENCODING 203
SWIDTH 667 0
DWIDTH 16 0
BBX 16 23 2 0
BITMAP
0198
0198
0000
0000
0FFF
0FFF
0C00
0C00
1800
1800
1800
1800
3FF8
3FF8
3000
3000
6000
6000
6000
6000
C000
FFF0
FFF0
ENDCHAR
STARTCHAR Igrave
ENCODING 204
SWIDTH 278 0
DWIDTH 8 0
BBX 7 24 3 0
BITMAP
30
18
0C
06
00
0C
0C
0C
0C
18
18
18
18
30
30
30
30
60
60
60
60
C0
C0
C0
ENDCHAR
STARTCHAR Iacute
ENCODING 205
SWIDTH 278 0
DWIDTH 8 0
BBX 9 24 3 0
BITMAP
0180
0300
0600
0C00
0000
0C00
0C00
0C00
0C00
1800
1800
1800
1800
3000
3000
3000
3000
6000
6000
6000
6000
C000
C000
C000
ENDCHAR
STARTCHAR Icircumflex
ENCODING 206
SWIDTH 278 0
DWIDTH 8 0
BBX 10 24 3 0
BITMAP
0E00
1B00
3180
60C0
0000
0C00
0C00
0C00
0C00
1800
1800
1800
1800
3000
3000
3000
3000
6000
6000
6000
6000
C000
C000
C000
ENDCHAR
STARTCHAR Idieresis
ENCODING 207
SWIDTH 278 0
DWIDTH 8 0
BBX 8 23 3 0
BITMAP
1B
1B
00
00
0C
0C
0C
0C
18
18
18
18
30
30
30
30
60
60
60
60
C0
C0
C0
ENDCHAR
STARTCHAR Eth
ENCODING 208
SWIDTH 722 0
DWIDTH 18 0
BBX 18 19 2 0
BITMAP
0FFC00
0FFF00
0C0780
0C0180
1801C0
1800C0
1800C0
1800C0
FF00C0
FF0180
300180
300180
600300
600700
600E00
601C00
C07800
FFF000
FFC000
ENDCHAR
STARTCHAR Ntilde
ENCODING 209
SWIDTH 722 0
DWIDTH 18 0
BBX 18 23 2 0
BITMAP
007100
00DB00
008E00
000000
0E00C0
0E00C0
0E00C0
0F00C0
1B0180
1B0180
198180
198180
318300
30C300
30C300
30C300
606600
606600
603600
603600
C01C00
C01C00
C01C00
ENDCHAR
STARTCHAR Ograve
ENCODING 210
SWIDTH 778 0
DWIDTH 18 0
BBX 18 24 2 0
BITMAP
00C000
006000
003000
001800
000000
00FC00
03FF00
078780
0E0180
1801C0
3800C0
3000C0
6000C0
6000C0
600180
C00180
C00380
C00300
C00600
E00E00
601C00
787800
3FF000
0FC000
ENDCHAR
STARTCHAR Oacute
ENCODING 211
SWIDTH 778 0
DWIDTH 18 0
BBX 18 24 2 0
BITMAP
000300
000600
000C00
001800
000000
00FC00
03FF00
078780
0E0180
1801C0
3800C0
3000C0
6000C0
6000C0
600180
C00180
C00380
C00300
C00600
E00E00
601C00
787800
3FF000
0FC000
ENDCHAR
STARTCHAR Ocircumflex
ENCODING 212
SWIDTH 778 0
DWIDTH 18 0
BBX 18 24 2 0
BITMAP
003800
006C00
00C600
018300
000000
00FC00
03FF00
078780
0E0180
1801C0
3800C0
3000C0
6000C0
6000C0
600180
C00180
C00380
C00300
C00600
E00E00
601C00
787800
3FF000
0FC000
ENDCHAR
STARTCHAR Otilde
ENCODING 213
SWIDTH 778 0
DWIDTH 18 0
BBX 18 23 2 0
BITMAP
007100
00DB00
008E00
000000
00FC00
03FF00
078780
0E0180
1801C0
3800C0
3000C0
6000C0
6000C0
600180
C00180
C00380
C00300
C00600
E00E00
601C00
787800
3FF000
0FC000
ENDCHAR
STARTCHAR Odieresis
ENCODING 214
SWIDTH 778 0
DWIDTH 18 0
BBX 18 23 2 0
BITMAP
006600
006600
000000
000000
00FC00
03FF00
078780
0E0180
1801C0
3800C0
3000C0
6000C0
6000C0
600180
C00180
C00380
C00300
C00600
E00E00
601C00
787800
3FF000
0FC000
ENDCHAR
STARTCHAR multiply
ENCODING 215
SWIDTH 584 0
DWIDTH 14 0
BBX 14 13 1 0
BITMAP
2008
701C
3838
1C70
0EE0
07C0
0780
0F80
1DC0
38E0
7070
E038
4010
ENDCHAR
STARTCHAR Oslash
ENCODING 216
SWIDTH 778 0
DWIDTH 18 0
BBX 20 19 1 0
BITMAP
007E30
01FF60
03C3C0
0701C0
0C0360
1C0660
180C60
301860
303060
3060C0
60C0C0
6181C0
630180
660300
6C0700
780E00
303C00
7FF800
C7E000
ENDCHAR
STARTCHAR Ugrave
ENCODING 217
SWIDTH 722 0
DWIDTH 18 0
BBX 17 24 3 0
BITMAP
018000
00C000
006000
003000
000000
180180
180180
180180
180180
300300
300300
300300
300300
600600
600600
600600
600C00
C00C00
C01C00
C01800
E03800
607000
7FE000
1F8000
ENDCHAR
STARTCHAR Uacute
ENCODING 218
SWIDTH 722 0
DWIDTH 18 0
BBX 17 24 3 0
BITMAP
000C00
001800
003000
006000
000000
180180
180180
180180
180180
300300
300300
300300
300300
600600
600600
600600
600C00
C00C00
C01C00
C01800
E03800
607000
7FE000
1F8000
ENDCHAR
STARTCHAR Ucircumflex
ENCODING 219
SWIDTH 722 0
DWIDTH 18 0
BBX 17 24 3 0
BITMAP
007000
00D800
018C00
030600
000000
180180
180180
180180
180180
300300
300300
300300
300300
600600
600600
600600
600C00
C00C00
C01C00
C01800
E03800
607000
7FE000
1F8000
ENDCHAR
STARTCHAR Udieresis
ENCODING 220
SWIDTH 722 0
DWIDTH 18 0
BBX 17 23 3 0
BITMAP
018C00
018C00
000000
000000
180180
180180
180180
180180
300300
300300
300300
300300
600600
600600
600600
600C00
C00C00
C01C00
C01800
E03800
607000
7FE000
1F8000
ENDCHAR
STARTCHAR Yacute
ENCODING 221
SWIDTH 667 0
DWIDTH 16 0
BBX 15 24 5 0
BITMAP
0060
00C0
0180
0300
0000
C00E
C01C
C038
6070
60E0
61C0
3180
3300
3700
3E00
1C00
1800
1800
1800
3000
3000
3000
3000
3000
ENDCHAR
STARTCHAR Thorn
ENCODING 222
SWIDTH 667 0
DWIDTH 16 0
BBX 15 19 2 0
BITMAP
0C00
0C00
0C00
0C00
1FF0
1FFC
180E
1806
3806
3006
300C
301C
7FF8
7FE0
6000
6000
C000
C000
C000
ENDCHAR
STARTCHAR germandbls
ENCODING 223
SWIDTH 611 0
DWIDTH 15 0
BBX 12 19 3 0
BITMAP
01E0
07F0
0E30
0C30
1830
1830
1860
18E0
3380
33C0
30E0
3060
6060
6060
6060
60C0
C1C0
CF80
CE00
ENDCHAR
STARTCHAR agrave
ENCODING 224
SWIDTH 556 0
DWIDTH 13 0
BBX 11 19 2 0
BITMAP
0C00
0600
0300
0180
0000
07C0
1FE0
3860
3060
00E0
07C0
1FC0
78C0
60C0
C180
C380
C780
FDC0
78C0
ENDCHAR
STARTCHAR aacute
ENCODING 225
SWIDTH 556 0
DWIDTH 13 0
BBX 11 19 2 0
BITMAP
0060
00C0
0180
0300
0000
07C0
1FE0
3860
3060
00E0
07C0
1FC0
78C0
61C0
C180
C380
C780
FDC0
78C0
ENDCHAR
STARTCHAR acircumflex
ENCODING 226
SWIDTH 556 0
DWIDTH 13 0
BBX 12 19 2 0
BITMAP
0180
03C0
0660
0C30
0000
07C0
1FE0
3860
3060
00E0
07C0
1FC0
78C0
61C0
C180
C380
C780
FDC0
78C0
ENDCHAR
STARTCHAR atilde
ENCODING 227
SWIDTH 556 0
DWIDTH 13 0
BBX 12 18 2 0
BITMAP
0710
0DB0
08E0
0000
07C0
1FE0
3860
3060
00E0
07C0
1FC0
78C0
61C0
C180
C380
C780
FDC0
78C0
ENDCHAR
STARTCHAR adieresis
ENCODING 228
SWIDTH 556 0
DWIDTH 13 0
BBX 11 18 2 0
BITMAP
0CC0
0CC0
0000
0000
07C0
1FE0
3860
3060
00E0
07C0
1FC0
78C0
61C0
C180
C380
C780
FDC0
78C0
ENDCHAR
STARTCHAR aring
ENCODING 229
SWIDTH 556 0
DWIDTH 13 0
BBX 11 19 2 0
BITMAP
0180
03C0
0240
03C0
0180
07C0
1FE0
3860
3060
00E0
07C0
1FC0
78C0
61C0
C180
C380
C780
FDC0
78C0
ENDCHAR
STARTCHAR ae
ENCODING 230
SWIDTH 889 0
DWIDTH 21 0
BBX 20 14 2 0
BITMAP
07E7C0
1FEFE0
383C70
307030
006030
07E030
1FFFF0
78FFE0
E0C000
C1C000
C1C0C0
C7E1C0
FF7F80
7C3E00
ENDCHAR
STARTCHAR ccedilla
ENCODING 231
SWIDTH 500 0
DWIDTH 12 0
BBX 11 19 2 -5
BITMAP
07C0
0FE0
1C60
3060
6000
6000
C000
C000
C000
C000
C180
E380
7F00
3E00
3000
1800
1800
F800
7000
ENDCHAR
STARTCHAR egrave
ENCODING 232
SWIDTH 556 0
DWIDTH 13 0
BBX 12 19 2 0
BITMAP
0C00
0600
0300
0180
0000
03C0
0FE0
1C70
3830
7030
6030
FFE0
FFE0
C000
C000
C0C0
E1C0
7F80
3E00
ENDCHAR
STARTCHAR eacute
ENCODING 233
SWIDTH 556 0
DWIDTH 13 0
BBX 12 19 2 0
BITMAP
0030
0060
00C0
0180
0000
03C0
0FE0
1C70
3830
7030
6030
FFE0
FFE0
C000
C000
C0C0
E1C0
7F80
3E00
ENDCHAR
STARTCHAR ecircumflex
ENCODING 234
SWIDTH 556 0
DWIDTH 13 0
BBX 12 19 2 0
BITMAP
0180
03C0
0660
0C30
0000
03C0
0FE0
1C70
3830
7030
6030
FFE0
FFE0
C000
C000
C0C0
E1C0
7F80
3E00
ENDCHAR
STARTCHAR edieresis
ENCODING 235
SWIDTH 556 0
DWIDTH 13 0
BBX 12 18 2 0
BITMAP
0660
0660
0000
0000
03C0
0FE0
1C70
3830
7030
6030
FFE0
FFE0
C000
C000
C0C0
E1C0
7F80
3E00
ENDCHAR
STARTCHAR igrave
ENCODING 236
SWIDTH 278 0
DWIDTH 6 0
BBX 5 19 2 0
BITMAP
C0
60
30
18
00
18
18
18
30
30
30
30
60
60
60
60
C0
C0
C0
ENDCHAR
STARTCHAR iacute
ENCODING 237
SWIDTH 278 0
DWIDTH 6 0
BBX 8 19 2 0
BITMAP
03
06
0C
18
00
18
18
18
30
30
30
30
60
60
60
60
C0
C0
C0
ENDCHAR
STARTCHAR icircumflex
ENCODING 238
SWIDTH 278 0
DWIDTH 6 0
BBX 8 19 2 0
BITMAP
18
3C
66
C3
00
18
18
18
30
30
30
30
60
60
60
60
C0
C0
C0
ENDCHAR
STARTCHAR idieresis
ENCODING 239
SWIDTH 278 0
DWIDTH 6 0
BBX 8 18 2 0
BITMAP
33
33
00
00
18
18
18
30
30
30
30
60
60
60
60
C0
C0
C0
ENDCHAR
STARTCHAR eth
ENCODING 240
SWIDTH 556 0
DWIDTH 13 0
BBX 12 19 2 0
BITMAP
1860
0D80
0F00
3180
00C0
07E0
0FE0
1C70
3030
6030
6030
C030
C030
C060
C060
C0C0
E380
7F00
3E00
ENDCHAR
STARTCHAR ntilde
ENCODING 241
SWIDTH 556 0
DWIDTH 14 0
BBX 13 19 2 0
BITMAP
0388
06D8
0470
0000
0000
19C0
1BF0
1E30
3830
3030
3030
3030
6060
6060
6060
6060
C0C0
C0C0
C0C0
ENDCHAR
STARTCHAR ograve
ENCODING 242
SWIDTH 556 0
DWIDTH 13 0
BBX 12 19 2 0
BITMAP
0C00
0600
0300
0180
0000
07C0
0FE0
1C70
3030
6030
6030
C030
C030
C060
C060
C0C0
E380
7F00
3E00
ENDCHAR
STARTCHAR oacute
ENCODING 243
SWIDTH 556 0
DWIDTH 13 0
BBX 12 19 2 0
BITMAP
00C0
0180
0300
0600
0000
07C0
0FE0
1C70
3030
6030
6030
C030
C030
C060
C060
C0C0
E380
7F00
3E00
ENDCHAR
STARTCHAR ocircumflex
ENCODING 244
SWIDTH 556 0
DWIDTH 13 0
BBX 12 19 2 0
BITMAP
0300
0780
0CC0
1860
0000
07C0
0FE0
1C70
3030
6030
6030
C030
C030
C060
C060
C0C0
E380
7F00
3E00
ENDCHAR
STARTCHAR otilde
ENCODING 245
SWIDTH 556 0
DWIDTH 13 0
BBX 12 19 2 0
BITMAP
0710
0DB0
08E0
0000
0000
07C0
0FE0
1C70
3030
6030
6030
C030
C030
C060
C060
C0C0
E380
7F00
3E00
ENDCHAR
STARTCHAR odieresis
ENCODING 246
SWIDTH 556 0
DWIDTH 13 0
BBX 12 18 2 0
BITMAP
0660
0660
0000
0000
07C0
0FE0
1C70
3030
6030
6030
C030
C030
C060
C060
C0C0
E380
7F00
3E00
ENDCHAR
STARTCHAR divide
ENCODING 247
SWIDTH 584 0
DWIDTH 14 0
BBX 12 12 2 1
BITMAP
0300
0300
0300
0000
0000
FFF0
FFF0
0000
0000
0C00
0C00
0C00
ENDCHAR
STARTCHAR oslash
ENCODING 248
SWIDTH 611 0
DWIDTH 13 0
BBX 15 14 0 0
BITMAP
01F6
03FC
0718
0C3C
186C
18CC
318C
330C
3618
3C18
3830
30E0
7FC0
CF80
ENDCHAR
STARTCHAR ugrave
ENCODING 249
SWIDTH 556 0
DWIDTH 14 0
BBX 12 19 3 0
BITMAP
1800
0C00
0600
0300
0000
3030
3030
3030
6060
6060
6060
6060
C0C0
C0C0
C0C0
C1C0
C780
FD80
7980
ENDCHAR
STARTCHAR uacute
ENCODING 250
SWIDTH 556 0
DWIDTH 14 0
BBX 12 19 3 0
BITMAP
0060
00C0
0180
0300
0000
3030
3030
3030
6060
6060
6060
6060
C0C0
C0C0
C0C0
C1C0
C780
FD80
7980
ENDCHAR
STARTCHAR ucircumflex
ENCODING 251
SWIDTH 556 0
DWIDTH 14 0
BBX 12 19 3 0
BITMAP
0300
0780
0CC0
1860
0000
3030
3030
3030
6060
6060
6060
6060
C0C0
C0C0
C0C0
C1C0
C780
FD80
7980
ENDCHAR
STARTCHAR udieresis
ENCODING 252
SWIDTH 556 0
DWIDTH 14 0
BBX 12 18 3 0
BITMAP
0660
0660
0000
0000
3030
3030
3030
6060
6060
6060
6060
C0C0
C0C0
C0C0
C1C0
C780
FD80
7980
ENDCHAR
STARTCHAR yacute
ENCODING 253
SWIDTH 500 0
DWIDTH 13 0
BBX 14 24 1 -5
BITMAP
0030
0060
00C0
0180
0000
300C
300C
301C
3818
1830
1870
1860
0CE0
0CC0
0D80
0780
0700
0700
0600
0C00
1C00
3800
F000
E000
ENDCHAR
STARTCHAR thorn
ENCODING 254
SWIDTH 556 0
DWIDTH 14 0
BBX 14 24 1 -5
BITMAP
0600
0600
0600
0600
0C00
0CF0
0FF8
0F1C
1C0C
180C
180C
1818
3018
3018
3030
3070
78E0
7FC0
6780
6000
C000
C000
C000
C000
ENDCHAR
STARTCHAR ydieresis
ENCODING 255
SWIDTH 500 0
DWIDTH 13 0
BBX 14 23 1 -5
BITMAP
0660
0660
0000
0000
300C
300C
301C
3818
1830
1870
1860
0CE0
0CC0
0D80
0780
0700
0700
0600
0C00
1C00
3800
F000
E000
ENDCHAR
STARTCHAR uni0400
ENCODING 1024
SWIDTH 667 0
DWIDTH 16 0
BBX 16 24 2 0
BITMAP
0300
0180
00C0
0060
0000
0FFF
0FFF
0C00
0C00
1800
1800
1800
1800
3FF8
3FF8
3000
3000
6000
6000
6000
6000
C000
FFF0
FFF0
ENDCHAR
STARTCHAR afii10023
ENCODING 1025
SWIDTH 667 0
DWIDTH 16 0
BBX 16 23 2 0
BITMAP
0198
0198
0000
0000
0FFF
0FFF
0C00
0C00
1800
1800
1800
1800
3FF8
3FF8
3000
3000
6000
6000
6000
6000
C000
FFF0
FFF0
ENDCHAR
STARTCHAR afii10053
ENCODING 1028
SWIDTH 720 0
DWIDTH 18 0
BBX 17 19 2 0
BITMAP
00FE00
03FF00
078380
0E0180
180180
380000
300000
600000
7FC000
7FC000
C00000
C00000
C00000
C00600
E00E00
601C00
787800
3FF000
0FC000
ENDCHAR
STARTCHAR afii10054
ENCODING 1029
SWIDTH 667 0
DWIDTH 16 0
BBX 16 19 1 0
BITMAP
00F8
03FE
0707
0C03
1803
1800
1C00
0F00
07E0
00F8
001C
000E
0006
C006
C006
E00C
783C
3FF0
0FC0
ENDCHAR
STARTCHAR afii10055
ENCODING 1030
SWIDTH 278 0
DWIDTH 8 0
BBX 6 19 3 0
BITMAP
0C
0C
0C
0C
18
18
18
18
30
30
30
30
60
60
60
60
C0
C0
C0
ENDCHAR
STARTCHAR afii10056
ENCODING 1031
SWIDTH 278 0
DWIDTH 8 0
BBX 8 23 3 0
BITMAP
1B
1B
00
00
0C
0C
0C
0C
18
18
18
18
30
30
30
30
60
60
60
60
C0
C0
C0
ENDCHAR
STARTCHAR afii10057
ENCODING 1032
SWIDTH 500 0
DWIDTH 13 0
BBX 13 19 2 0
BITMAP
0018
0018
0018
0018
0030
0030
0030
0030
0060
0060
0060
0060
C0C0
C0C0
C1C0
C180
E380
7F00
3E00
ENDCHAR
STARTCHAR afii10062
ENCODING 1038
SWIDTH 680 0
DWIDTH 17 0
BBX 17 24 3 0
BITMAP
040400
060C00
03F800
01F000
000000
300180
300380
300700
300600
180E00
181C00
183800
183000
187000
18E000
19C000
0D8000
0F8000
0F0000
0E0000
1C0000
380000
F00000
E00000
ENDCHAR
STARTCHAR afii10017
ENCODING 1040
SWIDTH 680 0
DWIDTH 17 0
BBX 15 19 1 0
BITMAP
0070
0070
00F0
00F8
01D8
0198
0398
0718
0618
0E0C
0C0C
1FFC
1FFC
380C
3006
7006
6006
E006
E006
ENDCHAR
STARTCHAR afii10018
ENCODING 1041
SWIDTH 680 0
DWIDTH 17 0
BBX 17 19 2 0
BITMAP
0FFF80
0FFF80
0C0000
0C0000
180000
180000
180000
180000
3FF800
3FFC00
300E00
300600
600600
600600
600600
600E00
C03C00
FFF800
FFE000
ENDCHAR
STARTCHAR afii10019
ENCODING 1042
SWIDTH 680 0
DWIDTH 17 0
BBX 16 19 2 0
BITMAP
0FFC
0FFE
0C07
0C03
1803
1803
1807
180E
3FF8
3FFC
300E
3006
6006
6006
6006
600E
C03C
FFF8
FFE0
ENDCHAR
STARTCHAR afii10020
ENCODING 1043
SWIDTH 560 0
DWIDTH 14 0
BBX 15 19 2 0
BITMAP
0FFE
0FFE
0C00
0C00
1800
1800
1800
1800
3000
3000
3000
3000
6000
6000
6000
6000
C000
C000
C000
ENDCHAR
STARTCHAR afii10021
ENCODING 1044
SWIDTH 800 0
DWIDTH 20 0
BBX 21 23 0 -4
BITMAP
007FF8
007FF8
006018
006018
00C030
00C030
00C030
00C030
018060
018060
018060
030060
0300C0
0600C0
0600C0
0C00C0
180180
7FFFE0
7FFFE0
600060
C000C0
C000C0
C000C0
ENDCHAR
STARTCHAR afii10022
ENCODING 1045
SWIDTH 640 0
DWIDTH 16 0
BBX 16 19 2 0
BITMAP
0FFF
0FFF
0C00
0C00
1800
1800
1800
1800
3FF8
3FF8
3000
3000
6000
6000
6000
6000
C000
FFF0
FFF0
ENDCHAR
STARTCHAR afii10024
ENCODING 1046
SWIDTH 960 0
DWIDTH 24 0
BBX 28 19 0 0
BITMAP
0C018030
0E0180F0
070181E0
03818380
01C30F00
00C31E00
00E33800
00737000
003FE000
001FC000
003FC000
00F6E000
01EC6000
038C7000
070C3800
1E0C1C00
3C180C00
70180E00
E0180700
ENDCHAR
STARTCHAR afii10025
ENCODING 1047
SWIDTH 600 0
DWIDTH 15 0
BBX 15 19 1 0
BITMAP
01F8
07FC
0E0E
1C06
1806
0006
000E
001C
03F0
03F8
001C
000C
000C
000C
000C
C01C
F078
7FF0
1FC0
ENDCHAR
STARTCHAR afii10026
ENCODING 1048
SWIDTH 720 0
DWIDTH 18 0
BBX 18 19 2 0
BITMAP
0C01C0
0C03C0
0C07C0
0C06C0
180D80
181D80
183980
187180
30E300
30C300
31C300
338300
670600
6E0600
6C0600
7C0600
F80C00
F00C00
E00C00
ENDCHAR
STARTCHAR afii10027
ENCODING 1049
SWIDTH 720 0
DWIDTH 18 0
BBX 18 24 2 0
BITMAP
010200
018600
00FC00
007800
000000
0C01C0
0C03C0
0C07C0
0C06C0
180D80
181D80
183980
187180
30E300
30C300
31C300
338300
670600
6E0600
6C0600
7C0600
F80C00
F00C00
E00C00
ENDCHAR
STARTCHAR afii10028
ENCODING 1050
SWIDTH 720 0
DWIDTH 18 0
BBX 17 19 2 0
BITMAP
0C0380
0C0700
0C0E00
0C1C00
187000
18E000
19C000
1B8000
3F0000
3F8000
39C000
30C000
60E000
607000
603800
601800
C01C00
C00E00
C00600
ENDCHAR
STARTCHAR afii10029
ENCODING 1051
SWIDTH 760 0
DWIDTH 19 0
BBX 20 19 1 0
BITMAP
00FFF0
00FFF0
00C030
00C030
018060
018060
018060
018060
0300C0
0300C0
0300C0
0300C0
060180
060180
0C0180
0C0180
1C0300
F80300
F00300
ENDCHAR
STARTCHAR afii10030
ENCODING 1052
SWIDTH 880 0
DWIDTH 22 0
BBX 22 19 2 0
BITMAP
0C000C
0C001C
0E003C
1E0038
1E0078
1E00D8
1B0198
1B01B0
330330
330730
330630
330C30
619C60
619860
61B860
61B060
C1E0C0
C0E0C0
C0C0C0
ENDCHAR
STARTCHAR afii10031
ENCODING 1053
SWIDTH 720 0
DWIDTH 18 0
BBX 18 19 2 0
BITMAP
0C00C0
0C00C0
0C00C0
0C00C0
180180
180180
180180
180180
3FFF00
3FFF00
300300
300300
600600
600600
600600
600600
C00C00
C00C00
C00C00
ENDCHAR
STARTCHAR afii10032
ENCODING 1054
SWIDTH 720 0
DWIDTH 18 0
BBX 18 19 2 0
BITMAP
00FC00
03FF00
078780
0E0180
1801C0
3800C0
3000C0
6000C0
6000C0
600180
C00180
C00380
C00300
C00600
E00E00
601C00
787800
3FF000
0FC000
ENDCHAR
STARTCHAR afii10033
ENCODING 1055
SWIDTH 720 0
DWIDTH 18 0
BBX 18 19 2 0
BITMAP
0FFFC0
0FFFC0
0C00C0
0C00C0
180180
180180
180180
180180
300300
300300
300300
300300
600600
600600
600600
600600
C00C00
C00C00
C00C00
ENDCHAR
STARTCHAR afii10034
ENCODING 1056
SWIDTH 640 0
DWIDTH 16 0
BBX 16 19 2 0
BITMAP
0FFC
0FFE
0C07
0C03
1803
1803
1803
1806
3FFC
3FF8
3000
3000
6000
6000
6000
6000
C000
C000
C000
ENDCHAR
STARTCHAR afii10035
ENCODING 1057
SWIDTH 720 0
DWIDTH 18 0
BBX 17 19 2 0
BITMAP
00FE00
03FF00
078380
0E0180
180180
380000
300000
600000
600000
600000
C00000
C00000
C00000
C00600
E00E00
601C00
787800
3FF000
0FC000
ENDCHAR
STARTCHAR afii10036
ENCODING 1058
SWIDTH 640 0
DWIDTH 16 0
BBX 14 19 5 0
BITMAP
FFFC
FFFC
0300
0300
0600
0600
0600
0600
0C00
0C00
0C00
0C00
1800
1800
1800
1800
3000
3000
3000
ENDCHAR
STARTCHAR afii10037
ENCODING 1059
SWIDTH 680 0
DWIDTH 17 0
BBX 17 19 3 0
BITMAP
300180
300380
300700
300600
180E00
181C00
183800
183000
187000
18E000
19C000
0D8000
0F8000
0F0000
0E0000
1C0000
380000
F00000
E00000
ENDCHAR
STARTCHAR afii10038
ENCODING 1060
SWIDTH 760 0
DWIDTH 19 0
BBX 18 19 2 0
BITMAP
003000
003000
03FC00
0FFF00
1C6380
306180
6061C0
6060C0
C0C0C0
C0C0C0
C0C0C0
C0C180
E18180
618300
718E00
3FFC00
0FF000
030000
030000
ENDCHAR
STARTCHAR afii10039
ENCODING 1061
SWIDTH 680 0
DWIDTH 17 0
BBX 19 19 0 0
BITMAP
0C0060
0E00E0
0601C0
070380
030700
018E00
01DC00
00F800
00F000
00E000
01F000
03B000
073800
0E1800
1C1C00
380C00
700E00
E00600
C00600
ENDCHAR
STARTCHAR afii10040
ENCODING 1062
SWIDTH 760 0
DWIDTH 19 0
BBX 18 23 2 -4
BITMAP
0C00C0
0C00C0
0C00C0
0C00C0
180180
180180
180180
180180
300300
300300
300300
300300
600600
600600
600600
600600
C00C00
FFFF00
FFFF00
000300
000600
000600
000600
ENDCHAR
STARTCHAR afii10041
ENCODING 1063
SWIDTH 680 0
DWIDTH 17 0
BBX 15 19 4 0
BITMAP
6006
6006
6006
6006
C00C
C00C
C00C
E00C
6038
7FF8
1FD8
0018
0030
0030
0030
0030
0060
0060
0060
ENDCHAR
STARTCHAR afii10042
ENCODING 1064
SWIDTH 880 0
DWIDTH 22 0
BBX 22 19 2 0
BITMAP
0C0C0C
0C0C0C
0C0C0C
0C0C0C
181818
181818
181818
181818
303030
303030
303030
303030
606060
606060
606060
606060
C0C0C0
FFFFC0
FFFFC0
ENDCHAR
STARTCHAR afii10043
ENCODING 1065
SWIDTH 920 0
DWIDTH 23 0
BBX 22 23 2 -4
BITMAP
0C0C0C
0C0C0C
0C0C0C
0C0C0C
181818
181818
181818
181818
303030
303030
303030
303030
606060
606060
606060
606060
C0C0C0
FFFFF0
FFFFF0
000030
000060
000060
000060
ENDCHAR
STARTCHAR afii10044
ENCODING 1066
SWIDTH 760 0
DWIDTH 19 0
BBX 15 19 4 0
BITMAP
FC00
FC00
0C00
0C00
1800
1800
1800
1800
3FF8
3FFC
300E
3006
6006
6006
6006
600E
C03C
FFF8
FFE0
ENDCHAR
STARTCHAR afii10045
ENCODING 1067
SWIDTH 920 0
DWIDTH 23 0
BBX 23 19 2 0
BITMAP
0C0006
0C0006
0C0006
0C0006
18000C
18000C
18000C
18000C
3FF818
3FFC18
300E18
300618
600630
600630
600630
600E30
C03C60
FFF860
FFE060
ENDCHAR
STARTCHAR afii10046
ENCODING 1068
SWIDTH 680 0
DWIDTH 17 0
BBX 15 19 2 0
BITMAP
0C00
0C00
0C00
0C00
1800
1800
1800
1800
3FF8
3FFC
300E
3006
6006
6006
6006
600E
C03C
FFF8
FFE0
ENDCHAR
STARTCHAR afii10047
ENCODING 1069
SWIDTH 720 0
DWIDTH 18 0
BBX 18 19 2 0
BITMAP
01FC00
07FF00
0F0780
1C0180
1801C0
0000C0
0000C0
0000C0
00FFC0
00FF80
000180
000380
000300
C00600
E00E00
601C00
787800
3FF000
0FC000
ENDCHAR
STARTCHAR afii10048
ENCODING 1070
SWIDTH 960 0
DWIDTH 24 0
BBX 24 19 2 0
BITMAP
0C03F0
0C0FFC
0C1E1E
0C3806
186007
18E003
18C003
198003
3F8003
3F8006
330006
33000E
63000C
630018
638038
618070
C1E1E0
C0FFC0
C03F00
ENDCHAR
STARTCHAR afii10049
ENCODING 1071
SWIDTH 680 0
DWIDTH 17 0
BBX 17 19 2 0
BITMAP
03FF80
0FFF80
1E0180
380300
300300
300300
300300
380600
1FFE00
0FFE00
0E0600
1C0C00
180C00
300C00
300C00
601800
601800
C01800
C01800
ENDCHAR
STARTCHAR afii10065
ENCODING 1072
SWIDTH 520 0
DWIDTH 13 0
BBX 11 14 2 0
BITMAP
07C0
1FE0
3860
3060
00E0
07C0
1FC0
78C0
6180
C180
C380
C780
FDC0
78C0
ENDCHAR
STARTCHAR afii10066
ENCODING 1073
SWIDTH 520 0
DWIDTH 13 0
BBX 13 19 2 0
BITMAP
0018
01F8
07E0
0E00
1C00
3BC0
3FE0
7C70
7030
6030
6030
C030
C030
C060
C060
C0C0
E380
7F00
3E00
ENDCHAR
STARTCHAR afii10067
ENCODING 1074
SWIDTH 520 0
DWIDTH 13 0
BBX 12 14 2 0
BITMAP
1FC0
1FE0
1870
3030
3030
3070
3FE0
7FC0
60E0
6060
6060
C0E0
FFC0
FF00
ENDCHAR
STARTCHAR afii10068
ENCODING 1075
SWIDTH 400 0
DWIDTH 10 0
BBX 11 14 2 0
BITMAP
1FE0
1FE0
1800
3000
3000
3000
3000
6000
6000
6000
6000
C000
C000
C000
ENDCHAR
STARTCHAR afii10069
ENCODING 1076
SWIDTH 560 0
DWIDTH 14 0
BBX 15 17 0 -3
BITMAP
03FE
03FE
0306
060C
060C
060C
060C
0C18
0C18
1818
1818
3030
7FF8
7FF8
6018
C030
C030
ENDCHAR
STARTCHAR afii10070
ENCODING 1077
SWIDTH 520 0
DWIDTH 13 0
BBX 12 14 2 0
BITMAP
03C0
0FE0
1C70
3830
7030
6030
FFE0
FFE0
C000
C000
C0C0
E1C0
7F80
3E00
ENDCHAR
STARTCHAR afii10072
ENCODING 1078
SWIDTH 720 0
DWIDTH 18 0
BBX 19 14 1 0
BITMAP
183060
1C30E0
0C31C0
0E6380
066700
076E00
03FC00
07F800
0EDC00
1CCC00
38CE00
718600
E18700
C18300
ENDCHAR
STARTCHAR afii10073
ENCODING 1079
SWIDTH 480 0
DWIDTH 12 0
BBX 12 14 1 0
BITMAP
07C0
0FE0
1C70
1830
0030
0070
07E0
07C0
00E0
0060
C060
E0E0
7FC0
3F00
ENDCHAR
STARTCHAR afii10074
ENCODING 1080
SWIDTH 600 0
DWIDTH 15 0
BBX 14 14 2 0
BITMAP
181C
183C
187C
30F8
30D8
31D8
3398
6730
6630
6C30
7C30
F860
F060
E060
ENDCHAR
STARTCHAR afii10075
ENCODING 1081
SWIDTH 600 0
DWIDTH 15 0
BBX 14 19 2 0
BITMAP
0410
0630
03E0
01C0
0000
181C
183C
187C
30F8
30D8
31D8
3398
6730
6630
6C30
7C30
F860
F060
E060
ENDCHAR
STARTCHAR afii10076
ENCODING 1082
SWIDTH 480 0
DWIDTH 12 0
BBX 12 14 2 0
BITMAP
1830
1860
18C0
3380
3700
3E00
3E00
6700
6300
6380
6180
C1C0
C0C0
C0C0
ENDCHAR
STARTCHAR afii10077
ENCODING 1083
SWIDTH 560 0
DWIDTH 14 0
BBX 15 14 0 0
BITMAP
03FE
03FE
0306
060C
060C
060C
060C
0C18
0C18
0C18
0C18
1830
F830
E030
ENDCHAR
STARTCHAR afii10078
ENCODING 1084
SWIDTH 680 0
DWIDTH 17 0
BBX 16 14 2 0
BITMAP
1803
1807
1C0F
3C0E
3C1E
3E36
3636
666C
666C
66CC
678C
C718
C718
C618
ENDCHAR
STARTCHAR afii10079
ENCODING 1085
SWIDTH 560 0
DWIDTH 14 0
BBX 13 14 2 0
BITMAP
1818
1818
1818
3030
3030
3030
3FF0
7FE0
6060
6060
6060
C0C0
C0C0
C0C0
ENDCHAR
STARTCHAR afii10080
ENCODING 1086
SWIDTH 520 0
DWIDTH 13 0
BBX 12 14 2 0
BITMAP
07C0
0FE0
1C70
3030
6030
6030
C030
C030
C060
C060
C0C0
E380
7F00
3E00
ENDCHAR
STARTCHAR afii10081
ENCODING 1087
SWIDTH 560 0
DWIDTH 14 0
BBX 13 14 2 0
BITMAP
1FF8
1FF8
1818
3030
3030
3030
3030
6060
6060
6060
6060
C0C0
C0C0
C0C0
ENDCHAR
STARTCHAR afii10082
ENCODING 1088
SWIDTH 560 0
DWIDTH 14 0
BBX 14 19 1 -5
BITMAP
0CF0
0FF8
0F1C
1C0C
180C
180C
1818
3018
3018
3030
3070
78E0
7FC0
6780
6000
C000
C000
C000
C000
ENDCHAR
STARTCHAR afii10083
ENCODING 1089
SWIDTH 480 0
DWIDTH 12 0
BBX 11 14 2 0
BITMAP
07C0
0FE0
1C60
3060
6000
6000
C000
C000
C000
C000
C180
E380
7F00
3E00
ENDCHAR
STARTCHAR afii10084
ENCODING 1090
SWIDTH 400 0
DWIDTH 10 0
BBX 10 14 3 0
BITMAP
FFC0
FFC0
0C00
1800
1800
1800
1800
3000
3000
3000
3000
6000
6000
6000
ENDCHAR
STARTCHAR afii10085
ENCODING 1091
SWIDTH 520 0
DWIDTH 13 0
BBX 14 19 1 -5
BITMAP
300C
300C
301C
3818
1830
1870
1860
0CE0
0CC0
0D80
0780
0700
0700
0600
0C00
1C00
3800
F000
E000
ENDCHAR
STARTCHAR afii10086
ENCODING 1092
SWIDTH 800 0
DWIDTH 20 0
BBX 19 24 2 -5
BITMAP
001800
001800
001800
003000
003000
07B780
0FFFC0
1C78E0
307060
706060
606060
6060C0
C0C0C0
C0C0C0
C0C180
C1C380
E3C700
7FFE00
3DBC00
018000
030000
030000
030000
030000
ENDCHAR
STARTCHAR afii10087
ENCODING 1093
SWIDTH 480 0
DWIDTH 12 0
BBX 14 14 1 0
BITMAP
180C
181C
0C38
0C70
06E0
07C0
0380
0700
0F80
1D80
38C0
70C0
E060
C060
ENDCHAR
STARTCHAR afii10088
ENCODING 1094
SWIDTH 560 0
DWIDTH 14 0
BBX 13 17 2 -3
BITMAP
1818
1818
1818
3030
3030
3030
3030
6060
6060
6060
6060
C0C0
FFE0
FFE0
0060
00C0
00C0
ENDCHAR
STARTCHAR afii10089
ENCODING 1095
SWIDTH 520 0
DWIDTH 13 0
BBX 11 14 3 0
BITMAP
6060
6060
6060
C0C0
C0C0
C1C0
E3C0
7F80
3D80
0180
0180
0300
0300
0300
ENDCHAR
STARTCHAR afii10090
ENCODING 1096
SWIDTH 800 0
DWIDTH 20 0
BBX 19 14 2 0
BITMAP
183060
183060
183060
3060C0
3060C0
3060C0
3060C0
60C180
60C180
60C180
60C180
C18300
FFFF00
FFFF00
ENDCHAR
STARTCHAR afii10091
ENCODING 1097
SWIDTH 800 0
DWIDTH 20 0
BBX 19 17 2 -3
BITMAP
183060
183060
183060
3060C0
3060C0
3060C0
3060C0
60C180
60C180
60C180
60C180
C18300
FFFF80
FFFF80
000180
000300
000300
ENDCHAR
STARTCHAR afii10092
ENCODING 1098
SWIDTH 560 0
DWIDTH 14 0
BBX 11 14 3 0
BITMAP
F800
F800
1800
3000
3000
3000
3F80
7FC0
60E0
6060
6060
C0E0
FFC0
FF00
ENDCHAR
STARTCHAR afii10093
ENCODING 1099
SWIDTH 760 0
DWIDTH 19 0
BBX 18 14 2 0
BITMAP
1800C0
1800C0
1800C0
300180
300180
300180
3F8180
7FC300
60E300
606300
606300
C0E600
FFC600
FF0600
ENDCHAR
STARTCHAR afii10094
ENCODING 1100
SWIDTH 520 0
DWIDTH 13 0
BBX 11 14 2 0
BITMAP
1800
1800
1800
3000
3000
3000
3F80
7FC0
60E0
6060
6060
C0E0
FFC0
FF00
ENDCHAR
STARTCHAR afii10095
ENCODING 1101
SWIDTH 480 0
DWIDTH 12 0
BBX 12 14 1 0
BITMAP
07C0
0FE0
1C70
1830
0030
0030
07F0
07F0
0060
0060
C0C0
E380
7F00
3E00
ENDCHAR
STARTCHAR afii10096
ENCODING 1102
SWIDTH 760 0
DWIDTH 19 0
BBX 18 14 2 0
BITMAP
181F00
183F80
1871C0
30C0C0
3180C0
3180C0
3F00C0
7F00C0
630180
630180
630300
C38E00
C1FC00
C0F800
ENDCHAR
STARTCHAR afii10097
ENCODING 1103
SWIDTH 520 0
DWIDTH 13 0
BBX 13 14 1 0
BITMAP
07F8
1FF8
3818
3030
3030
3830
1FF0
0FE0
0E60
1C60
3860
70C0
E0C0
C0C0
ENDCHAR
STARTCHAR uni0450
ENCODING 1104
SWIDTH 556 0
DWIDTH 13 0
BBX 12 19 2 0
BITMAP
0C00
0600
0300
0180
0000
03C0
0FE0
1C70
3830
7030
6030
FFE0
FFE0
C000
C000
C0C0
E1C0
7F80
3E00
ENDCHAR
STARTCHAR afii10071
ENCODING 1105
SWIDTH 556 0
DWIDTH 13 0
BBX 12 18 2 0
BITMAP
0660
0660
0000
0000
03C0
0FE0
1C70
3830
7030
6030
FFE0
FFE0
C000
C000
C0C0
E1C0
7F80
3E00
ENDCHAR
STARTCHAR afii10101
ENCODING 1108
SWIDTH 480 0
DWIDTH 12 0
BBX 11 14 2 0
BITMAP
07C0
0FE0
1C60
3060
6000
6000
FE00
FE00
C000
C000
C180
E380
7F00
3E00
ENDCHAR
STARTCHAR afii10102
ENCODING 1109
SWIDTH 500 0
DWIDTH 12 0
BBX 11 14 2 0
BITMAP
1FC0
3FE0
7060
6060
6000
7800
3F00
0780
01C0
00C0
C0C0
C1C0
FF80
7F00
ENDCHAR
STARTCHAR afii10103
ENCODING 1110
SWIDTH 222 0
DWIDTH 6 0
BBX 6 19 2 0
BITMAP
0C
0C
0C
00
00
18
18
18
30
30
30
30
60
60
60
60
C0
C0
C0
ENDCHAR
STARTCHAR afii10104
ENCODING 1111
SWIDTH 278 0
DWIDTH 6 0
BBX 8 18 2 0
BITMAP
33
33
00
00
18
18
18
30
30
30
30
60
60
60
60
C0
C0
C0
ENDCHAR
STARTCHAR afii10105
ENCODING 1112
SWIDTH 222 0
DWIDTH 6 0
BBX 9 24 -1 -5
BITMAP
0180
0180
0180
0000
0000
0300
0300
0300
0600
0600
0600
0600
0C00
0C00
0C00
0C00
1800
1800
1800
1800
3000
3000
F000
E000
ENDCHAR
STARTCHAR afii10110
ENCODING 1118
SWIDTH 520 0
DWIDTH 13 0
BBX 14 24 1 -5
BITMAP
0410
0630
03E0
01C0
0000
300C
300C
301C
3818
1830
1870
1860
0CE0
0CC0
0D80
0780
0700
0700
0600
0C00
1C00
3800
F000
E000
ENDCHAR
STARTCHAR afii10050
ENCODING 1168
SWIDTH 560 0
DWIDTH 14 0
BBX 16 23 2 0
BITMAP
0003
0003
0003
0006
0FFE
0FFE
0C00
0C00
1800
1800
1800
1800
3000
3000
3000
3000
6000
6000
6000
6000
C000
C000
C000
ENDCHAR
STARTCHAR afii10098
ENCODING 1169
SWIDTH 400 0
DWIDTH 10 0
BBX 12 17 2 0
BITMAP
0030
0030
0060
1FE0
1FE0
1800
3000
3000
3000
3000
6000
6000
6000
6000
C000
C000
C000
ENDCHAR
STARTCHAR uni04AA
ENCODING 1194
SWIDTH 722 0
DWIDTH 18 0
BBX 17 24 2 -5
BITMAP
00FC00
03FF00
078780
0E0180
180180
380000
300000
600000
600000
600000
C00000
C00000
C00000
C00600
E00E00
601C00
787800
3FF000
0FC000
0C0000
060000
060000
3E0000
1C0000
ENDCHAR
STARTCHAR uni04AB
ENCODING 1195
SWIDTH 500 0
DWIDTH 12 0
BBX 11 19 2 -5
BITMAP
07C0
0FE0
1C60
3060
6000
6000
C000
C000
C000
C000
C180
E380
7F00
3E00
3000
1800
1800
F800
7000
ENDCHAR
STARTCHAR uni04AE
ENCODING 1198
SWIDTH 667 0
DWIDTH 16 0
BBX 15 19 5 0
BITMAP
C00E
C01C
C038
6070
60E0
61C0
3180
3300
3700
3E00
1C00
1800
1800
1800
3000
3000
3000
3000
3000
ENDCHAR
STARTCHAR uni04C0
ENCODING 1216
SWIDTH 278 0
DWIDTH 8 0
BBX 6 19 3 0
BITMAP
0C
0C
0C
0C
18
18
18
18
30
30
30
30
60
60
60
60
C0
C0
C0
ENDCHAR
STARTCHAR uni04D2
ENCODING 1234
SWIDTH 667 0
DWIDTH 17 0
BBX 15 23 1 0
BITMAP
018C
018C
0000
0000
0070
0070
00F0
00F8
01D8
0198
0398
0718
0618
0E0C
0C0C
1FFC
1FFC
380C
3006
7006
6006
E006
E006
ENDCHAR
STARTCHAR uni04D3
ENCODING 1235
SWIDTH 556 0
DWIDTH 13 0
BBX 11 18 2 0
BITMAP
0CC0
0CC0
0000
0000
07C0
1FE0
3860
3060
00E0
07C0
1FC0
78C0
61C0
C180
C380
C780
FDC0
78C0
ENDCHAR
STARTCHAR uni04D4
ENCODING 1236
SWIDTH 1000 0
DWIDTH 23 0
BBX 25 19 1 0
BITMAP
003FFF80
007FFF80
00660000
00C60000
018C0000
018C0000
030C0000
030C0000
061FFE00
061FFE00
0C180000
1FF80000
1FF00000
30300000
30300000
60300000
60600000
C07FF800
C07FF800
ENDCHAR
STARTCHAR uni04D5
ENCODING 1237
SWIDTH 889 0
DWIDTH 21 0
BBX 20 14 2 0
BITMAP
07E7C0
1FEFE0
383C70
307030
006030
07E030
1FFFF0
78FFE0
E0C000
C1C000
C1C0C0
C7E1C0
FF7F80
7C3E00
ENDCHAR
STARTCHAR uni04E6
ENCODING 1254
SWIDTH 778 0
DWIDTH 18 0
BBX 18 23 2 0
BITMAP
006600
006600
000000
000000
00FC00
03FF00
078780
0E0180
1801C0
3800C0
3000C0
6000C0
6000C0
600180
C00180
C00380
C00300
C00600
E00E00
601C00
787800
3FF000
0FC000
ENDCHAR
STARTCHAR uni04E7
ENCODING 1255
SWIDTH 556 0
DWIDTH 13 0
BBX 12 18 2 0
BITMAP
0660
0660
0000
0000
07C0
0FE0
1C70
3030
6030
6030
C030
C030
C060
C060
C0C0
E380
7F00
3E00
ENDCHAR
ENDFONT
